<mxfile host="Electron" modified="2025-04-02T16:36:42.051Z" agent="Mozilla/5.0 (Windows NT 10.0; Win64; x64) AppleWebKit/537.36 (KHTML, like Gecko) draw.io/21.6.8 Chrome/114.0.5735.289 Electron/25.5.0 Safari/537.36" etag="QQi_jhKx6QVurLvtP1EW" version="21.6.8" type="device">
  <diagram name="Page-1" id="TxCw2yZVG_pj2w9UG9AR">
    <mxGraphModel dx="1418" dy="820" grid="1" gridSize="10" guides="1" tooltips="1" connect="1" arrows="1" fold="1" page="0" pageScale="1" pageWidth="1169" pageHeight="827" math="0" shadow="0">
      <root>
        <mxCell id="0" />
        <mxCell id="1" parent="0" />
        <mxCell id="GGq4wJihX1RdElHGyK2D-12" value="" style="shape=image;verticalLabelPosition=bottom;labelBackgroundColor=default;verticalAlign=top;aspect=fixed;imageAspect=0;image=data:image/png,iVBORw0KGgoAAAANSUhEUgAAAowAAAFXCAYAAAAoIh+nAAAAAXNSR0IArs4c6QAAAARnQU1BAACxjwv8YQUAAAAJcEhZcwAADsMAAA7DAcdvqGQAACEuSURBVHhe7d05cmTZ3d5hahvyFJIjV558kBvQFrLpyJEvi9krkCG3kz43oE4ug3VrHrrmgWR365P9fVe4t5BAApWFxnvq1CmcvM8T8UYQqKEjOv68/avEUL97//P/Hc2WsX8xMzOzgglGO+IdPnozMzPL9rtff/11NDMzMzP73G5dMP7yyy8H3292aO7FkrkXS+ZeLNmx38utC8aff/754PvNDs29WDL3YsnciyU79nu5dcH4z3/+8+D7zQ7NvVgy92LJ3IslO/Z7+ebB+OHDh0tv/+Mf/7j0ttl1cy+WzL1YMvdiyY79Xr5pME6x+OzZs0vv+/vf/37pbbPr5l4smXuxZO7Fkh37vXyzYNzFomC0L5l7sWTuxZK5F0smGL/C9mPxajBe/RC12XVzL5bMvVgy92LJjv1emgfj9C90PxavBuP79+8vvW123dyLJXMvlsy9WLJjv5emwXgoFq8G47t37y69bXbd3Islcy+WzL1YsmO/l2bB+LlYnLb/896+fXvpbduO65OT8WTeetwe/DnLnXuZNozb9e5Grm41rtbbcRgO/brlzb1c3TAO2+/H775bXbmZzfjjHd+02r0M41+//8P4+9/vP1P27mS1Hn/48c74yy+Hfu3yduz30iQYr4vFafs/982bN5feXvy260v/J11vD/ycBc+9TBvGzWr/Ib7bxd1M79+IRveyv2E7fv/d7y/dyHw352+fjKsflh0D7mUY//zH02Dcv49Pni2nW/1p/OH0Dxi/HPw9lrNjv5evHoy/FYvT9n/+69evL7299H185Wg1rtdn4bjeHvx5S517mXYRjJ/8geI0Cs5foXY77uV8p7H4+7NYXK0/eTVxGP58FpOnP7bgvx7PvVwE459+/PmTPzwMf/14J7ug/OFvpz9n78eXtmO/l68ajDeJxWn7v8b/Qfc2bD7+aX+1GYfzD017pWh/7mXaNcE47fxVap/S4F4+bvv92X/kVz+Mdz4bhKex8P1m3ArGBe/6YLz6c6Z7+tvP7uVY99WC8aaxOG3/17169erS20vesPn4eUWrzTC/vfs8td3b5l4+TjDedO7ldMOfx+/OXl1c/+jDiNfNvdwkGE93elN//MPHm7r25x35jv1evkowJrE4bf/Xvnz58tLby90uAvZeUdz9h39+xXH/5y537mXa9cG4+4OHu3Ev04Y/f3f2RQzL/nDzTeZebhiMez9v9cPfxp8XGozHfi/VgzGNxWn7v/7FixeX3l7sLn04evd+H5a+Ovcy7Wafw3jw1ceFzb3sfTh6/eNiXwm66dzLTYNx+oPIH8c/TH8Q+dOPp8G4zD+IHPu9VA3Gklictv97PH/+/NLbS93VD0fvdv7tU3wBwzz3Mu0iGKc/TBz6Ssb11qcxTHMvgjGZeykIxgV/HuOx30u1YCyNxWn7v89PP/106e1l7ppXEn0+2qW5l2n7wfi5rca1z311L1MA7L6qVTD+5tyLYEx27PdSJRi/JBan7f9eV99e5K79XEUfYtyfe5l23ecwDuN29zmMp1v6F0y5F68wJnMvNw/G82/wveAPSR/7vXxxMH5pLE7b//2uvr3E7f+tHRcfXrzY7sd8WNq9fNz1X/QyzRe+fJx7mV4JOvuil2u/pY5Ncy83DcaLn7fkL3o59nv5omCsEYvT9n/Pp0+fXnp7ebt4BfG354tf3Mu03w5Gn8rwce7ldNvvz75KeuVv5/iNuZcbBuP5t9VZ9jfvPvZ7KQ7GWrE4bf/3ffLkyaW3l7abvRJ0EZVL/xDj0u/l4wTjTedepp1GwO7zGH/jG3dvv/9+3C7475R2LzcJxoufs/Rv3H3s91IUjDVjcdr+7/348eNLby9rF//h/60Q9CHGj1v2vez2G8G4+xZN0xb+aQzu5WznrzJOz5AfPvmrAS/+nullvwrpXq4PxmH4q78acG/Hfi9xMNaOxWn7v/+jR48uvb2onf+H/QYfak5+7hFv0fdyvotgnO7h0ue8zu8728L/cDHNvVxsOI3G73bRuH87ezez+uHOtV/ocOxzL3uvHl55tlzczelWf5r/0LH0T2849nuJgvFrxOK0/X/Gw4cPL729pJ2/anijV4Fu/mrkMW/J93Kx4dIXSl3darUeN74P4zz3cmXD9FX0p+F4/geOaadBsN58+qrjAudehouvft57psybwnH9w/jDj8v+Q8X+jv1ebhyMXysWp+3/cx48eHDpbbPr5l4smXuxZO7Fkh37vdwoGL9mLE7b/2f5P6glcy+WzL1YMvdiyRYfjF87Fqft//Pu379/6W2z6+ZeLJl7sWTuxZId+71cG4wtYnHa/j/z3r17l942u27uxZK5F0vmXizZsd9L9EUvLXb37t2D7zc7NPdiydyLJXMvluzY7+XWBeMw+GpOu/nciyVzL5bMvViyY7+XWxeMd+7cOfh+s0NzL5bMvVgy92LJjv1ebl0w/uUvfzEzMzOzW7RbGYxwUz/99NPZ/4Lf5l5IuBcSx34vgpGueaCTcC8k3AsJwdh4gpGEBzoJ90LCvZAQjI0nGEl4oJNwLyTcCwnB2HiCkYQHOgn3QsK9kBCMjScYSXigk3AvJNwLCcHYeIKRhAc6CfdCwr2QEIyNJxhJeKCTcC8k3AsJwdh4gpGEBzoJ90LCvZAQjI0nGEl4oJNwLyTcCwnB+OswbjfrcbU6GU9OdluNq/Vm3A6Hfv6XTTCS8EAn4V5IuBcSyw7GYTuuzyPx5DQaT0Nx7+2Tk3X1aBSMJDzQSbgXEu6FxMKDcXMaietxsx0uvX/Ynr5/F43r7aUf+9IJRhIe6CTcCwn3QmLZwXjNtuu9VxkP/HjpBCMJD3QS7oWEeyEhGD+zYbMSjHxzHugk3AsJ90JCMH5m58G42ozDgR8vnWAk4YFOwr2QcC8kBOPBDePm7KumV5vLn9/4pROMJDzQSbgXEu6FhGA8sK/14ehpgpGEBzoJ90LCvZAQjFc3feX0HIv1X12cJhhJeKCTcC8k3AsJwXhpe9+XsfK309lNMJLwQCfhXki4FxKC8XwXn7c4xWLNL3TZn2Ak4YFOwr2QcC8kBOO8vVis/FXRVycYSXigk3AvJNwLCcHYMBanCUYSHugk3AsJ90Ji4cHYNhanCUYSHugk3AsJ90Ji0cF48e1zpmBcjavPbVPvC2AEIwkPdBLuhYR7ISEYd8F43Sp+xbRgJOGBTsK9kHAvJBYdjN9igpGEBzoJ90LCvZAQjI0nGEl4oJNwLyTcCwnB2HiCkYQHOgn3QsK9kBCMjScYSXigk3AvJNwLCcHYeIKRhAc6CfdCwr2QEIyNJxhJeKCTcC8k3AsJwdh4gpGEBzoJ90LCvZAQjI0nGEl4oJNwLyTcC4mjD8YPHz6M79+/H9+9ezfv7du38968eTO+fv163qtXr+a9fPlyfPHixbznz5/P/3KmPXv2bN7Tp0/HJ0+ezHv8+PG8R48ejQ8fPpz34MGD8f79+/Pu3bs37+7du+MwDPPu3LkzB+Pu9zUzMzOzbz+vMNK16YjhptwLCfdC4tjvRTDSNQ90Eu6FhHshIRgbTzCS8EAn4V5IuBcSgrHxBCMJD3QS7oWEeyEhGBtPMJLwQCfhXki4FxKCsfEEIwkPdBLuhYR7ISEYG08wkvBAJ+FeSLgXEoKx8QQjCQ90Eu6FhHshIRgbTzCS8EAn4V5IuBcSgrHxBCMJD3QS7oWEeyEhGBtPMJLwQCfhXki4FxKCsfEEIwkPdBLuhYR7ISEYG08wkvBAJ+FeSLgXEoKx8QQjCQ90Eu6FhHshIRgbTzCS8EAn4V5IuBcSgrHxBCMJD3QS7oWEeyEhGBtPMJLwQCfhXki4FxKCsfEEIwkPdBLuhYR7ISEYG08wkvBAJ+FeSLgXEoKx8QQjCQ90Eu6FhHshIRgbTzCS8EAn4V5IuBcSgrHxBCMJD3QS7oWEeyEhGBtPMJLwQCfhXki4FxKCsfEEIwkPdBLuhYR7ISEYG08wkvBAr+vf/af/Pf7uP9qN9u//1/jf/vv/Gf/t387+5XEj/+9//M/xH//hv4z//M//1W648V//9ezfHreZYGw8wUhCMNYlGIMJxiKCMZ9g7INgbDzBSEIw1iUYgwnGIoIxn2Dsg2BsPMFIQjDWJRiDCcYigjGfYOyDYGw8wUhCMNYlGIMJxiKCMZ9g7INgbDzBSEIw1iUYgwnGIoIxn2Dsg2BsPMFIQjDWJRiDCcYigjGfYOyDYGw8wUhCMNYlGIMJxiKCMZ9g7INgbDzBSEIw1iUYgwnGIoIxn2Dsg2BsPMFIQjDWJRiDCcYigjGfYOyDYGw8wUhCMNYlGIMJxiKCMZ9g7INgbDzBSEIw1iUYgwnGIoIxn2Dsg2BsPMFIQjDWJRiDCcYigjGfYOyDYGw8wUhCMNYlGIMJxiKCMZ9g7INgbDzBSEIw1iUYgwnGIoIxn2Dsg2BsPMFIQjDWJRiDCcYigjGfYOyDYGw8wUhCMNYlGIMJxiKCMZ9g7INgbDzBSEIw1iUYgwnGIoIxn2Dsg2BsPMFIQjDWJRiDCcYigjGfYOyDYGw8wUhCMNYlGIMJxiKCMZ9g7INgbDzBSEIw1iUYgwnGIoIxn2Dsg2D8dRi3m/W4Wp2MJye7rcbVejNuh0M//8smGEkIxroEYzDBWEQw5hOMfVh2MA7bcX0eiSen0Xgaintvn5ysx+2hX/cFE4wkBGNdgjGYYCwiGPMJxj4sPBg3p5G4Hjfb4dP376Jxvb38Y184wUhCMNYlGIMJxiKCMZ9g7MOyg/GabddnwbjajMOBHy+dYCQhGOsSjMEEYxHBmE8w9kEwfmbDZiUY+eYEY12CMZhgLCIY8wnGPgjGgxvGze6LYHxImm9IMNYlGIMJxiKCMZ9g7INg/GTDuF2fvbroi174xgRjXYIxmGAsIhjzCcY+CMZft+Nm+uroeWevKp7Ot9XhNhCMdQnGYIKxiGDMJxj7IBhPg3H/W+vsb7XeVv38xWmCkYRgrEswBhOMRQRjPsHYB8H4yYZx2K4vvq3Oqu6HpQUjCcFYl2AMJhiLCMZ8grEPgvFz2/tejKvNle/T+AUTjCQEY12CMZhgLCIY8wnGPgjGz+7rfKW0YCQhGOsSjMEEYxHBmE8w9kEwfnYXn9voFUa+FcFYl2AMJhiLCMZ8grEPiw7G6W9zmb+w5ZOvhp6+tc7Zq4snq3FT8aulBSMJwViXYAwmGIsIxnyCsQ+LD8aPUfgxDK9+a53pfevt4V9bOsFIQjDWJRiDCcYigjGfYOzDooNx2rDdjOspFM8j8WMo+j6M3AaCsS7BGEwwFhGM+QRjHxYfjK0nGEkIxroEYzDBWEQw5hOMfRCMjScYSQjGugRjMMFYRDDmE4x9EIyNJxhJCMa6BGMwwVhEMOYTjH0QjI0nGEkIxroEYzDBWEQw5hOMfRCMjScYSQjGugRjMMFYRDDmE4x9EIyNJxhJCMa6BGMwwVhEMOYTjH0QjI0nGEkIxroEYzDBWEQw5hOMfRCMjScYSQjGugRjMMFYRDDmE4x9OPpg/PDhw/j+/fvx3bt3896+fTvvzZs34+vXr+e9evVq3suXL8cXL17Me/78+fwvZ9qzZ8/mPX36dHzy5Mm8x48fz3v06NH48OHDeQ8ePBjv378/7969e/Pu3r07DsMw786dO3Mw7n5fM2s7wRhMMBYRjPl+Ov1v66H/v5q1nFcY6dp0xNQjGIMJxiKCMZ9XGPtw7P89Eox0TTDWJRiDCcYigjGfYOyDYGw8wUhCMNYlGIMJxiKCMZ9g7INgbDzBSEIw1iUYgwnGIoIxn2Dsg2BsPMFIQjDWJRiDCcYigjGfYOyDYGw8wUhCMNYlGIMJxiKCMZ9g7INgbDzBSEIw1iUYgwnGIoIxn2Dsg2BsPMFIQjDWJRiDCcYigjGfYOyDYGw8wUhCMNYlGIMJxiKCMZ9g7INgbDzBSEIw1iUYgwnGIoIxn2Dsg2BsPMFIQjDWJRiDCcYigjGfYOyDYGw8wUhCMNYlGIMJxiKCMZ9g7INgbDzBSEIw1iUYgwnGIoIxn2Dsg2BsPMFIQjDWJRiDCcYigjGfYOyDYGw8wUhCMNYlGIMJxiKCMZ9g7INgbDzBSEIw1iUYgwnGIoIxn2Dsg2BsPMFIQjDWJRiDCcYigjGfYOyDYGw8wUhCMNYlGIMJxiKCMZ9g7INgbDzBSEIw1iUYgwnGIoIxn2Dsg2BsPMFIQjDWJRiDCcYigjGfYOyDYGw8wUhCMNYlGIMJxiKCMZ9g7INgbDzBSEIw1iUYgwnGIoIxn2Dsg2BsPMFIQjDWJRiDCcYigjGfYOyDYGw8wUhCMNYlGIMJxiKCMZ9g7INgbDzBSEIw1iUYgwnGIoIxn2Dsg2BsPMFIQjDWJRiDCcYigjGfYOyDYGw8wUhCMNYlGIMJxiKCMZ9g7INgbDzBSEIw1iUYgwnGIoIxn2Dsg2BsPMFIQjDWJRiDCcYigjGfYOyDYGw8wUhCMNYlGIMJxiKCMZ9g7INgbDzBSEIw1iUYgwnGIoIxn2Dsg2BsPMFIQjDWJRiDCcYigjGfYOyDYGw8wUhCMNYlGIMJxiKCMZ9g7INgbDzBSEIw1iUYgwnGIoIxn2Dsg2BsPMFIQjDWJRiDCcYigjGfYOyDYGw8wUhCMNYlGIMJxiKCMZ9g7INgbDzBSEIw1iUYgwnGIoIxn2Dsg2BsPMFIQjDWJRiDCcYigjGfYOyDYGw8wUhCMNYlGIMJxiKCMZ9g7INgbDzBSEIw1iUYgwnGIoIxn2Dsg2BsPMFIQjDWJRiDCcYigjGfYOyDYGw8wUhCMNYlGIMJxiKCMZ9g7INgbDzBSEIw1iUYgwnGIoIxn2Dsg2BsPMFIQjDWJRiDCcYigjGfYOyDYGw8wUhCMNYlGIMJxiKCMZ9g7INgvLphM65OTsaTeetxOxz4OV8wwUhCMNYlGIMJxiKCMZ9g7INgvLRh3Kx2sThtNW4EI9+QYKxLMAYTjEUEYz7B2AfBuLdhs5pDcbXZjGvByC0gGOsSjMEEYxHBmE8w9kEw7rb7UPRqMw6/bgUjt4JgrEswBhOMRQRjPsHYB8E4b/eh6F0gCkZuB8FYl2AMJhiLCMZ8grEPgvF0uw9Fn6y3Z+8TjNwOgrEuwRhMMBYRjPkEYx8E43kcrsftJ+8TjHxbgrEuwRhMMBYRjPkEYx8WH4zb9RSGJ+N6u/9+wcjtIBjrEozBBGMRwZhPMPZh2cG4Xc+xePGh6N0EI7eDYKxLMAYTjEUEYz7B2IcFB+OhD0Vf/THByLclGOsSjMEEYxHBmE8w9mG5wbh7dfF0q9Xqyj6+f97Z+zaXPmRdPsFIQjDWJRiDCcYigjGfYOyDYLzhLn+OY/kEIwnBWJdgDCYYiwjGfIKxD8sNxmvnQ9LcDoKxLsEYTDAWEYz5BGMfBOPBCUZuB8FYl2AMJhiLCMZ8grEPgvHgBCO3g2CsSzAGE4xFBGM+wdgHwXhwgpHbQTDWJRiDCcYigjGfYOyDYGw8wUhCMNYlGIMJxiKCMZ9g7INgbDzBSEIw1iUYgwnGIoIxn2Dsg2BsPMFIQjDWJRiDCcYigjGfYOyDYGw8wUhCMNYlGIMJxiKCMZ9g7INgbDzBSEIw1iUYgwnGIoIxn2Dsg2BsPMFIQjDWJRiDCcYigjGfYOyDYGw8wUhCMNYlGIMJxiKCMZ9g7INgbDzBSEIw1iUYgwnGIoIxn2Dsw9EH44cPH8b379+P7969m/f27dt5b968GV+/fj3v1atX816+fDm+ePFi3vPnz+d/OdOePXs27+nTp+OTJ0/mPX78eN6jR4/Ghw8fznvw4MF4//79effu3Zt39+7dcRiGeXfu3JmDcff7mlnbCcZggrGIYMz30+l/Ww/9/9Ws5bzCSNemI6YewRhMMBYRjPm8wtiHY//vkWCka4KxLsEYTDAWEYz5BGMfBGPjCUYSgrEuwRhMMBYRjPkEYx8EY+MJRhKCsS7BGEwwFhGM+QRjHwRj4wlGEoKxLsEYTDAWEYz5BGMfBGPjCUYSgrEuwRhMMBYRjPkEYx8EY+MJRhKCsS7BGEwwFhGM+QRjHwRj4wlGEoKxLsEYTDAWEYz5BGMfBGPjCUYSgrEuwRhMMBYRjPkEYx8EY+MJRhKCsS7BGEwwFhGM+QRjHwRj4wlGEoKxLsEYTDAWEYz5BGMfBGPjCUYSgrEuwRhMMBYRjPkEYx8EY+MJRhKCsS7BGEwwFhGM+QRjHwRj4wlGEoKxLsEYTDAWEYz5BGMfBGPjCUYSgrEuwRhMMBYRjPkEYx8EY+MJRhKCsS7BGEwwFhGM+QRjHwRj4wlGEoKxLsEYTDAWEYz5BGMfBGPjCUYSgrEuwRhMMBYRjPkEYx8EY+MJRhKCsS7BGEwwFhGM+QRjHwRj4wlGEoKxLsEYTDAWEYz5BGMfBGPjCUYSgrEuwRhMMBYRjPkEYx8EY+MJRhKCsS7BGEwwFhGM+QRjHwRj4wlGEoKxLsEYTDAWEYz5BGMfBGPjCUYSgrEuwRhMMBYRjPkEYx8EY+MJRhKCsS7BGEwwFhGM+QRjHwRj4wlGEoKxLsEYTDAWEYz5BGMfBGPjCUYSgrEuwRhMMBYRjPkEYx8EY+MJRhKCsS7BGEwwFhGM+QRjHwRj4wlGEoKxLsEYTDAWEYz5BGMfBGPjCUYSgrEuwRhMMBYRjPkEYx8EY+MJRhKCsS7BGEwwFhGM+QRjHwRj4wlGEoKxLsEYTDAWEYz5BGMfBGPjCUYSgrEuwRhMMBYRjPkEYx8EY+MJRhKCsS7BGEwwFhGM+QRjHwRj4wlGEoKxLsEYTDAWEYz5BGMfBGPjCUYSgrEuwRhMMBYRjPkEYx8EY+MJRhKCsS7BGEwwFhGM+QRjHwRj4wlGEoKRhHsh4V5ICMbGE4wkPNBJuBcS7oWEYGw8wUjCA52EeyHhXkgIxsYTjCQ80Em4FxLuhYRgbDzBSMIDnYR7IeFeSAjGxhOMJDzQSbgXEu6FhGBsPMFIwgOdhHsh4V5ICMbGE4wkPNBJuBcS7oXEwoNxGDerk/Hk5Jqttwd+XfkEIwkPdBLuhYR7ISEYd8G4Wo2rQ9sMB35d+QQjCQ90Eu6FhHshIRjnYFyP24M/Xn+CkYQHOgn3QsK9kBCMgpFbzAOdhHsh4V5ICEbByC3mgU7CvZBwLyQEo2DkFvNAJ+FeSLgXEoLx4Be9rMfNZjsOB3/Nl00wkvBAJ+FeSLgXEoJxF4wHtxrX20O/rnyCkYQHOgn3QsK9kFh4ME4bPnklcRi24/o8JFfjZrj8418ywUjCA52EeyHhXkgIxs/uNBrPXmms+b0YBSMJD3QS7oWEeyEhGK/Zdn32KmPFv+1FMJLwQCfhXki4FxKC8ZoJRr41D3QS7oWEeyEhGD+7iw9J1/zCF8FIwgOdhHsh4V5ILDoYt+vVuD707XOG7d5XT9f9Ho2CkYQHOgn3QsK9kFh4MO6icNrZ92A8f/vj+2p+hfQ0wUjCA52EeyHhXkgsOhinb6mz3aznULyIxJP57YOvPFaYYCThgU7CvZBwLyQWHoztJxhJeKCTcC8k3AsJwdh4gpGEBzoJ90LCvZAQjI0nGEl4oJNwLyTcCwnB2HiCkYQHOgn3QsK9kBCMjScYSXigk3AvJNwLCcHYeIKRhAc6CfdCwr2QEIyNJxhJeKCTcC8k3AsJwdh4gpGEBzoJ90LCvZA4+mD88OHD+P79+/Hdu3fz3r59O+/Nmzfj69ev57169Wrey5cvxxcvXsx7/vz5/C9n2rNnz+Y9ffp0fPLkybzHjx/Pe/To0fjw4cN5Dx48GO/fvz/v3r178+7evTsOwzDvzp07czDufl8zMzMz+/bzCiNdm44Ybsq9kHAvJI79XgQjXfNAJ+FeSLgXEoKx8QQjCQ90Eu6FhHshIRgbTzCS8EAn4V5IuBcSgrHxBCMJD3QS7oWEeyEhGBtPMJLwQCfhXki4FxKCsfEEIwkPdBLuhYR7ISEYG08wkvBAJ+FeSLgXEoKx8QQjCQ90Eu6FhHshIRgbTzCS8EAn4V5IuBcSgrHxBCMJD3QS7oWEeyEhGBtPMJLwQCfhXki4FxKCsfEEIwkPdBLuhYR7ISEYG08wkvBAJ+FeSLgXEoKx8QQjCQ90Eu6FhHshIRgbTzCS8EAn4V5IuBcSgrHxBCMJD3QS7oWEeyEhGBtPMJLwQCfhXki4FxKCsfEEIwkPdBLuhYR7ISEYG08wkvBAJ+FeSLgXEoKx8QQjCQ90Eu6FhHshIRgbTzCS8EAn4V5IuBcSgrHxBCMJD3QS7oWEeyEhGBtPMJLwQCfhXki4FxKCsfEEIwkPdBLuhYR7ISEYG08wkvBAJ+FeSLgXEoKx8QQjCQ90Eu6FhHshIRgbTzCS8EAn4V5IuBcSgrHxBCMJD3QS7oWEeyEhGBtPMJLwQCfhXki4FxKCsfEEIwkPdBLuhYR7ISEYG08wkvBAJ+FeSLgXEoKx8QQjCQ90Eu6FhHshIRgbTzCS8EAn4V5IuBcSgrHxBCMJD3QS7oWEeyEhGBtPMJLwQCfhXki4FxKCsfEEIwkPdBLuhYR7ISEYG08wkvBAJ+FeSLgXEoKx8QQjCQ90Eu6FhHshIRgbTzCS8EAn4V5IuBcSgrHxBCMJD3QS7oWEeyEhGBtPMJLwQCfhXki4FxKCsfEEIwkPdBLuhYR7ISEYG08wkvBAJ+FeSLgXEoKx8QQjCQ90Eu6FhHshIRjPN4zbzXpcrU7Gk5PdVuNqvRmHgz+/bIKRhAc6CfdCwr2QEIzTtqeheB6Jp1udhuLpdm+vtwd+TeEEIwkPdBLuhYR7ISEYh815LK42209fTRwGrzDyzXigk3AvJNwLicUH43a9i8Xh4I/XnmAk4YFOwr2QcC8klh2M568ursftoR//ChOMJDzQSbgXEu6FxLKDcbv++HmK6+3hH/8KE4wkPNBJuBcS7oXEooNx2Hz8wpb5cxe3m3G994Uu8/tX63E7HP61pROMJDzQSbgXEu6FxKKDcff5i5cjcfoK6f33rXyVNN+MBzoJ90LCvZAQjFMUrtbjZnv1i16GcbMLx1W978UoGEl4oJNwLyTcCwnBOL2q+LmvkP4KXxQjGEl4oJNwLyTcC4lFB+Pucxg//0Uv23E9B+Nq3FT6XEbBSMIDnYR7IeFeSAjG6z7kfP4Ko2Dk2/BAJ+FeSLgXEosOxt8Mwt233fE5jHwjHugk3AsJ90Ji2cG4/4Ut68tROH2bnYu/MrDe3wIjGEl4oJNwLyTcC4mFB+Pp9v4u6TkOp2+rs/925W/qLRhJeKCTcC8k3AsJwTht2I6b9afftPvTb7Xz5ROMJDzQSbgXEu6FhGBsPMFIwgOdhHsh4V5IHPe9jOP/B3Q8eIjkGMX9AAAAAElFTkSuQmCC;" parent="1" vertex="1">
          <mxGeometry x="199" y="241" width="652" height="343" as="geometry" />
        </mxCell>
        <mxCell id="GGq4wJihX1RdElHGyK2D-4" value="" style="endArrow=baseDash;html=1;rounded=0;endFill=0;strokeWidth=1;startArrow=baseDash;startFill=0;" parent="1" edge="1">
          <mxGeometry width="50" height="50" relative="1" as="geometry">
            <mxPoint x="376" y="494" as="sourcePoint" />
            <mxPoint x="459" y="494" as="targetPoint" />
          </mxGeometry>
        </mxCell>
        <mxCell id="GGq4wJihX1RdElHGyK2D-6" value="" style="endArrow=baseDash;html=1;rounded=0;endFill=0;strokeWidth=1;startArrow=baseDash;startFill=0;" parent="1" edge="1">
          <mxGeometry width="50" height="50" relative="1" as="geometry">
            <mxPoint x="656" y="497" as="sourcePoint" />
            <mxPoint x="689" y="497" as="targetPoint" />
          </mxGeometry>
        </mxCell>
        <mxCell id="GGq4wJihX1RdElHGyK2D-8" value="" style="endArrow=baseDash;html=1;rounded=0;endFill=0;strokeWidth=1;startArrow=baseDash;startFill=0;" parent="1" edge="1">
          <mxGeometry width="50" height="50" relative="1" as="geometry">
            <mxPoint x="697" y="452" as="sourcePoint" />
            <mxPoint x="697" y="489" as="targetPoint" />
          </mxGeometry>
        </mxCell>
        <mxCell id="GGq4wJihX1RdElHGyK2D-11" value="" style="endArrow=baseDash;html=1;rounded=0;endFill=0;strokeWidth=1;startArrow=baseDash;startFill=0;" parent="1" edge="1">
          <mxGeometry width="50" height="50" relative="1" as="geometry">
            <mxPoint x="454" y="312" as="sourcePoint" />
            <mxPoint x="454" y="336" as="targetPoint" />
          </mxGeometry>
        </mxCell>
        <mxCell id="GGq4wJihX1RdElHGyK2D-13" value="fromColOffset" style="text;html=1;strokeColor=none;fillColor=none;align=center;verticalAlign=middle;whiteSpace=wrap;rounded=0;fontFamily=Lucida Console;" parent="1" vertex="1">
          <mxGeometry x="379" y="498" width="60" height="30" as="geometry" />
        </mxCell>
        <mxCell id="GGq4wJihX1RdElHGyK2D-14" value="toColOffset" style="text;html=1;strokeColor=none;fillColor=none;align=center;verticalAlign=middle;whiteSpace=wrap;rounded=0;fontFamily=Lucida Console;" parent="1" vertex="1">
          <mxGeometry x="616" y="498" width="60" height="30" as="geometry" />
        </mxCell>
        <mxCell id="GGq4wJihX1RdElHGyK2D-15" value="toRowOffset" style="text;html=1;strokeColor=none;fillColor=none;align=center;verticalAlign=middle;whiteSpace=wrap;rounded=0;fontFamily=Lucida Console;" parent="1" vertex="1">
          <mxGeometry x="716" y="454" width="60" height="30" as="geometry" />
        </mxCell>
        <mxCell id="GGq4wJihX1RdElHGyK2D-16" value="fromRowOffset" style="text;html=1;strokeColor=none;fillColor=none;align=center;verticalAlign=middle;whiteSpace=wrap;rounded=0;fontFamily=Lucida Console;fontStyle=0" parent="1" vertex="1">
          <mxGeometry x="370" y="310" width="60" height="30" as="geometry" />
        </mxCell>
        <mxCell id="GGq4wJihX1RdElHGyK2D-17" value="" style="ellipse;whiteSpace=wrap;html=1;aspect=fixed;fillColor=none;strokeWidth=5;dashed=1;dashPattern=1 1;fontColor=#ffffff;strokeColor=#FF00FF;" parent="1" vertex="1">
          <mxGeometry x="190" y="345" width="40" height="40" as="geometry" />
        </mxCell>
        <mxCell id="GGq4wJihX1RdElHGyK2D-18" value="" style="ellipse;whiteSpace=wrap;html=1;aspect=fixed;fillColor=none;strokeWidth=5;dashed=1;dashPattern=1 1;fontColor=#ffffff;strokeColor=#FF00FF;" parent="1" vertex="1">
          <mxGeometry x="190" y="484" width="40" height="40" as="geometry" />
        </mxCell>
        <mxCell id="GGq4wJihX1RdElHGyK2D-19" value="" style="ellipse;whiteSpace=wrap;html=1;aspect=fixed;fillColor=none;strokeWidth=5;dashed=1;dashPattern=1 1;fontColor=#ffffff;strokeColor=#FF00FF;" parent="1" vertex="1">
          <mxGeometry x="424" y="241" width="40" height="40" as="geometry" />
        </mxCell>
        <mxCell id="GGq4wJihX1RdElHGyK2D-20" value="" style="ellipse;whiteSpace=wrap;html=1;aspect=fixed;fillColor=none;strokeWidth=5;dashed=1;dashPattern=1 1;fontColor=#ffffff;strokeColor=#FF00FF;" parent="1" vertex="1">
          <mxGeometry x="704" y="241" width="40" height="40" as="geometry" />
        </mxCell>
        <mxCell id="GGq4wJihX1RdElHGyK2D-26" value="fromRow" style="text;html=1;strokeColor=none;fillColor=none;align=center;verticalAlign=middle;whiteSpace=wrap;rounded=0;fontColor=#FF00FF;fontStyle=1" parent="1" vertex="1">
          <mxGeometry x="240" y="350" width="60" height="30" as="geometry" />
        </mxCell>
        <mxCell id="GGq4wJihX1RdElHGyK2D-27" value="toRow" style="text;html=1;strokeColor=none;fillColor=none;align=center;verticalAlign=middle;whiteSpace=wrap;rounded=0;fontColor=#FF00FF;fontStyle=1" parent="1" vertex="1">
          <mxGeometry x="232" y="489" width="60" height="30" as="geometry" />
        </mxCell>
        <mxCell id="GGq4wJihX1RdElHGyK2D-28" value="fromCol (2)" style="text;html=1;strokeColor=none;fillColor=none;align=center;verticalAlign=middle;whiteSpace=wrap;rounded=0;fontColor=#FF00FF;fontStyle=1" parent="1" vertex="1">
          <mxGeometry x="455" y="274" width="85" height="30" as="geometry" />
        </mxCell>
        <mxCell id="GGq4wJihX1RdElHGyK2D-29" value="toCol (4)" style="text;html=1;strokeColor=none;fillColor=none;align=center;verticalAlign=middle;whiteSpace=wrap;rounded=0;fontColor=#FF00FF;fontStyle=1" parent="1" vertex="1">
          <mxGeometry x="725" y="274" width="85" height="30" as="geometry" />
        </mxCell>
      </root>
    </mxGraphModel>
  </diagram>
</mxfile>
